<?xml version="1.0" encoding="utf-8"?>
<!-- Generator: Adobe Illustrator 27.5.0, SVG Export Plug-In . SVG Version: 6.00 Build 0)  -->
<svg version="1.1" xmlns="http://www.w3.org/2000/svg" xmlns:xlink="http://www.w3.org/1999/xlink" x="0px" y="0px"
	 viewBox="0 0 500 500" style="enable-background:new 0 0 500 500;" xml:space="preserve">
<g id="Background_Complete">
	<g>
		<g>
			<g>
				<rect x="187.828" y="80.538" style="fill:#F5F5F5;" width="236.899" height="325.611"/>
			</g>
		</g>
		<g>
			<g>
				<rect x="187.828" y="80.538" style="fill:#E0E0E0;" width="236.899" height="17.697"/>
			</g>
			<g>
				<path style="fill:#F5F5F5;" d="M198.573,89.387c0,1.315-1.066,2.381-2.381,2.381c-1.315,0-2.381-1.066-2.381-2.381
					s1.066-2.381,2.381-2.381C197.507,87.006,198.573,88.072,198.573,89.387z"/>
			</g>
			<g>
				<path style="fill:#F5F5F5;" d="M216.402,88.875c0,1.315-1.066,2.381-2.381,2.381s-2.381-1.066-2.381-2.381
					c0-1.315,1.066-2.381,2.381-2.381S216.402,87.56,216.402,88.875z"/>
			</g>
			<g>
				<path style="fill:#F5F5F5;" d="M207.923,88.875c0,1.315-1.066,2.381-2.381,2.381c-1.315,0-2.381-1.066-2.381-2.381
					c0-1.315,1.066-2.381,2.381-2.381C206.857,86.495,207.923,87.56,207.923,88.875z"/>
			</g>
		</g>
	</g>
	<g>
		<path style="fill:#EBEBEB;" d="M450.228,114.31c0,0-9.437-3.913-15.764,18.072c-6.327,21.985-7.959,34.274-7.959,34.274
			s-1.885,4.715-5.295,2.531c-3.41-2.183-8.859-9.195-13.484-6.848c-4.796,2.434-5.372,8.424-2.793,16.563
			c2.579,8.139,7.575,26.179,8.021,27.812c0.437,1.603-0.03,4.18-2.592,3.065c-2.562-1.115-18.373-13.085-23.604-5.243
			c-5.231,7.842,5.68,29.337,6.828,31.709c1.148,2.373,0.865,3.535-0.203,4.384c-1.068,0.849-6.004-3.676-10.64-6.896
			c-4.636-3.22-10.577-6.142-13.216-1.364c-2.639,4.778-0.435,22.063,21.178,46.649l10.76,10.737l14.807-3.726
			c31.201-9.906,42.01-23.573,42.215-29.027s-6.391-6.018-12.024-5.652c-5.633,0.366-12.195,1.694-12.672,0.415
			c-0.477-1.278-0.119-2.42,2.089-3.86c2.207-1.44,22.646-14.219,22.213-23.636c-0.433-9.417-20.153-7.324-22.923-7.691
			c-2.77-0.367-1.841-2.816-0.638-3.963c1.224-1.168,14.814-14.042,21.223-19.682s9.008-11.068,6.156-15.628
			c-2.75-4.397-11.036-1.204-15.084-1.094c-4.048,0.11-3.229-4.901-3.229-4.901s4.945-11.368,10.872-33.464
			c5.927-22.097-4.438-23.603-4.438-23.603"/>
		<g>
			<path style="fill:#E0E0E0;" d="M444.528,133.989c0,0-0.025,0.161-0.099,0.47c-0.082,0.329-0.195,0.783-0.34,1.366
				c-0.316,1.221-0.772,2.981-1.357,5.237c-1.184,4.547-2.946,11.113-5.156,19.219c-4.412,16.212-10.699,38.555-17.723,63.208
				c-7.027,24.661-13.369,46.988-17.872,63.174c-2.239,8.078-4.053,14.622-5.315,19.172c-0.625,2.245-1.113,3.996-1.451,5.211
				c-0.167,0.577-0.296,1.026-0.39,1.352c-0.091,0.304-0.15,0.456-0.15,0.456s0.025-0.161,0.099-0.47
				c0.082-0.329,0.195-0.782,0.34-1.365c0.316-1.221,0.772-2.981,1.357-5.237c1.184-4.546,2.946-11.112,5.155-19.217
				c4.412-16.212,10.699-38.557,17.726-63.218c7.025-24.652,13.367-46.977,17.869-63.163c2.239-8.078,4.053-14.623,5.315-19.173
				c0.625-2.245,1.113-3.997,1.451-5.212c0.167-0.577,0.296-1.026,0.39-1.352C444.468,134.141,444.528,133.989,444.528,133.989z"/>
		</g>
		<g>
			<path style="fill:#E0E0E0;" d="M414.954,172.455c0.032-0.016,0.237,0.317,0.581,0.935c0.347,0.616,0.819,1.523,1.393,2.648
				c1.142,2.254,2.636,5.408,4.219,8.919c1.542,3.459,2.935,6.587,4.014,9.006c0.482,1.068,0.891,1.976,1.228,2.722
				c0.292,0.642,0.439,1.005,0.407,1.022c-0.032,0.017-0.239-0.315-0.588-0.931c-0.345-0.618-0.818-1.524-1.38-2.656
				c-1.12-2.266-2.573-5.438-4.155-8.948c-1.566-3.446-2.981-6.562-4.077-8.973c-0.487-1.066-0.902-1.973-1.242-2.718
				C415.066,172.835,414.922,172.471,414.954,172.455z"/>
		</g>
		<g>
			<path style="fill:#E0E0E0;" d="M428.216,197.707c-0.065-0.128,6.299-3.5,14.212-7.53c7.917-4.032,14.385-7.195,14.45-7.067
				c0.065,0.128-6.297,3.499-14.214,7.531C434.752,194.671,428.282,197.835,428.216,197.707z"/>
		</g>
		<g>
			<path style="fill:#E0E0E0;" d="M415.719,235.085c-0.005-0.035,0.383-0.131,1.09-0.273c0.818-0.157,1.818-0.35,2.996-0.577
				c2.528-0.488,6.017-1.174,9.84-2.069c3.826-0.886,7.261-1.806,9.743-2.49c1.157-0.316,2.139-0.585,2.942-0.805
				c0.697-0.185,1.087-0.272,1.098-0.238c0.011,0.034-0.359,0.186-1.038,0.431c-0.679,0.244-1.668,0.579-2.899,0.965
				c-2.46,0.776-5.891,1.755-9.729,2.644c-3.835,0.897-7.346,1.528-9.895,1.924c-1.275,0.193-2.309,0.337-3.027,0.414
				C416.124,235.093,415.725,235.12,415.719,235.085z"/>
		</g>
		<g>
			<path style="fill:#E0E0E0;" d="M398.696,214.884c0.027-0.023,0.294,0.233,0.753,0.716c0.459,0.483,1.111,1.194,1.907,2.079
				c1.593,1.77,3.767,4.239,6.143,6.986c2.377,2.749,4.507,5.256,6.029,7.087c0.761,0.916,1.37,1.663,1.782,2.187
				c0.412,0.524,0.627,0.825,0.6,0.848c-0.027,0.024-0.294-0.232-0.753-0.716c-0.459-0.483-1.111-1.193-1.907-2.078
				c-1.593-1.77-3.767-4.239-6.144-6.988c-2.376-2.748-4.506-5.254-6.028-7.086c-0.761-0.916-1.37-1.663-1.782-2.187
				C398.884,215.208,398.669,214.908,398.696,214.884z"/>
		</g>
		<g>
			<path style="fill:#E0E0E0;" d="M383.471,246.48c0.027-0.024,0.365,0.307,0.953,0.927c0.649,0.703,1.471,1.593,2.452,2.656
				c2.053,2.258,4.863,5.401,7.942,8.893c3.08,3.494,5.847,6.675,7.829,8.995c0.931,1.106,1.712,2.033,2.328,2.765
				c0.541,0.661,0.827,1.037,0.8,1.061c-0.027,0.024-0.365-0.307-0.952-0.927c-0.649-0.703-1.471-1.593-2.452-2.656
				c-2.053-2.258-4.863-5.401-7.944-8.895c-3.079-3.492-5.845-6.674-7.828-8.994c-0.931-1.106-1.712-2.034-2.328-2.766
				C383.731,246.88,383.444,246.504,383.471,246.48z"/>
		</g>
		<g>
			<path style="fill:#E0E0E0;" d="M405.413,271.023c-0.007-0.035,0.482-0.168,1.372-0.378c0.987-0.227,2.254-0.518,3.772-0.866
				c3.184-0.732,7.579-1.758,12.398-3.024c4.823-1.259,9.159-2.511,12.292-3.437c1.494-0.439,2.741-0.806,3.713-1.091
				c0.878-0.253,1.37-0.377,1.381-0.343c0.011,0.034-0.459,0.223-1.318,0.536c-0.86,0.313-2.111,0.744-3.667,1.25
				c-3.109,1.017-7.437,2.328-12.27,3.589c-4.829,1.268-9.245,2.239-12.453,2.88c-1.605,0.316-2.906,0.559-3.809,0.705
				C405.922,270.992,405.42,271.058,405.413,271.023z"/>
		</g>
	</g>
	<g>
		<path style="fill:#EBEBEB;" d="M126.296,77.612c2.616-1.511,5.888-1.625,8.781-0.755c2.893,0.87,5.444,2.644,7.653,4.704
			c4.276,3.986,7.023,10.128,8.637,15.745c-6.341,1.39-12.995-2.138-16.257-4.139C129.954,90.004,122.554,81.155,126.296,77.612"/>
		<path style="fill:#EBEBEB;" d="M162.455,98.443c-3.104-1.325-5.185-4.565-5.489-7.927c-0.304-3.361,1.027-6.756,3.237-9.307
			c1.022-1.179,2.387-2.261,3.947-2.214c1.458,0.044,2.746,1.113,3.382,2.426c0.637,1.313,0.717,2.828,0.605,4.282
			C167.751,90.692,166.463,95.449,162.455,98.443"/>
		<g>
			<path style="fill:#E0E0E0;" d="M172.392,114.385c-0.027,0.023-0.332-0.276-0.856-0.843c-0.524-0.566-1.267-1.401-2.148-2.465
				c-1.754-2.122-4.082-5.214-5.821-9.091c-1.76-3.88-2.234-7.836-1.873-10.598c0.163-1.385,0.464-2.478,0.739-3.204
				c0.275-0.726,0.479-1.105,0.506-1.093c0.108,0.034-0.653,1.605-0.878,4.333c-0.26,2.709,0.258,6.549,1.981,10.349
				c1.71,3.815,3.96,6.903,5.633,9.075c0.798,1.015,1.472,1.872,2.014,2.563C172.166,114.016,172.419,114.361,172.392,114.385z"/>
		</g>
		<g>
			<path style="fill:#E0E0E0;" d="M132.526,83.853c0.01-0.015,0.166,0.072,0.452,0.25c0.333,0.215,0.743,0.48,1.239,0.8
				c1.072,0.702,2.603,1.746,4.48,3.058c3.755,2.623,8.866,6.357,14.397,10.628c5.532,4.274,10.453,8.251,13.99,11.159
				c1.714,1.428,3.122,2.601,4.166,3.471c0.447,0.387,0.815,0.706,1.115,0.966c0.251,0.225,0.378,0.35,0.366,0.364
				c-0.011,0.014-0.16-0.084-0.432-0.283c-0.316-0.239-0.705-0.533-1.176-0.89c-1.07-0.837-2.513-1.967-4.27-3.342
				c-3.596-2.833-8.55-6.763-14.078-11.034c-5.527-4.267-10.596-8.044-14.293-10.741c-1.802-1.313-3.284-2.392-4.382-3.191
				c-0.474-0.353-0.865-0.643-1.183-0.88C132.652,83.983,132.516,83.868,132.526,83.853z"/>
		</g>
		<path style="fill:#EBEBEB;" d="M160.311,107.67c-6.22-3.454-14.142-3.64-20.518-0.481c-1.623,0.804-3.342,2.17-3.212,3.977
			c0.13,1.81,2.036,2.92,3.774,3.444c7.23,2.18,15.677-0.553,20.26-6.554"/>
		<g>
			<path style="fill:#E0E0E0;" d="M144.636,110.053c-0.017-0.032,0.342-0.239,1.01-0.588c0.331-0.182,0.744-0.387,1.248-0.57
				c0.5-0.19,1.059-0.444,1.714-0.61c0.646-0.198,1.359-0.398,2.144-0.527c0.776-0.182,1.624-0.245,2.513-0.346
				c1.784-0.115,3.758-0.057,5.797,0.271c2.038,0.341,3.921,0.933,5.58,1.589c1.651,0.682,3.072,1.443,4.202,2.178
				c0.583,0.34,1.058,0.726,1.493,1.036c0.438,0.307,0.788,0.606,1.068,0.859c0.565,0.496,0.865,0.783,0.842,0.81
				c-0.067,0.081-1.311-1.025-3.595-2.391c-1.139-0.685-2.555-1.4-4.187-2.046c-1.64-0.62-3.491-1.187-5.488-1.521
				c-1.998-0.321-3.93-0.392-5.679-0.306c-0.871,0.087-1.705,0.132-2.469,0.292c-0.774,0.109-1.478,0.285-2.119,0.457
				C146.144,109.339,144.684,110.156,144.636,110.053z"/>
		</g>
	</g>
</g>
<g id="Background_Simple" style="display:none;">
	<path style="display:inline;fill:#F5F5F5;" d="M84.021,140.999c-28.596,56.978-19.55,128.9,16.19,181.69
		c35.74,52.79,95.2,86.97,157.725,99.415c44.632,8.884,92.647,7.075,133.428-13.121c40.781-20.196,72.848-60.828,75.293-106.27
		c0.924-17.164-2.717-35.39-14.171-48.206c-18.289-20.464-49.512-21.185-76.945-20.34c-27.433,0.844-58.635,0.204-77.014-20.18
		c-14.122-15.663-16.201-38.382-23.642-58.114c-12.653-33.552-43.18-59.749-78.263-67.165c-5.847-1.236-11.79-1.944-17.75-2.146
		c-37.562-1.278-72.739,18.457-92.417,50.478L84.021,140.999z"/>
</g>
<g id="Floor">
	<g>
		<path style="fill:#263238;" d="M447.961,454.891c0,0.144-88.461,0.26-197.557,0.26c-109.135,0-197.576-0.117-197.576-0.26
			c0-0.144,88.442-0.26,197.576-0.26C359.501,454.631,447.961,454.747,447.961,454.891z"/>
	</g>
</g>
<g id="Speech_Bubble">
	<g>
		<path style="fill:#263238;" d="M99.921,153.43c0,0,0.145,0.181,0.395,0.537c0.261,0.376,0.625,0.9,1.094,1.576
			c0.959,1.403,2.346,3.433,4.122,6.032c0.038,0.056,0.024,0.132-0.032,0.17c-0.021,0.014-0.047,0.021-0.071,0.021
			c-3.096,0.002-6.94,0.004-11.381,0.007l-0.139,0c-0.08,0-0.145-0.065-0.145-0.145c0-0.028,0.008-0.055,0.022-0.077l0-0.001
			l0.264,0.221c-2.783,2.517-6.524,4.737-11.013,5.774c-2.236,0.507-4.64,0.77-7.11,0.572c-2.464-0.148-5.018-0.622-7.466-1.614
			c-2.453-0.96-4.833-2.327-6.976-4.101c-2.144-1.773-4.002-3.988-5.476-6.487c-2.952-4.992-4.182-11.303-2.965-17.402
			c1.141-5.685,4.264-10.756,8.451-14.252c4.209-3.472,9.361-5.458,14.365-5.707c5.011-0.352,9.794,0.935,13.675,3.086
			c3.86,2.217,6.898,5.214,8.867,8.441c2.011,3.207,3.078,6.528,3.51,9.487c0.055,0.371,0.108,0.735,0.161,1.093
			c0.047,0.358,0.041,0.715,0.064,1.062c0.021,0.696,0.086,1.364,0.065,2.005c-0.022,1.283-0.155,2.451-0.323,3.49
			c-0.348,2.08-0.873,3.639-1.272,4.669c-0.198,0.515-0.371,0.907-0.489,1.155C99.997,153.295,99.93,153.429,99.921,153.43
			c-0.009,0.001,0.039-0.132,0.145-0.399c0.107-0.271,0.26-0.657,0.442-1.179c0.366-1.038,0.856-2.597,1.17-4.664
			c0.151-1.033,0.268-2.192,0.275-3.462c0.013-0.635-0.059-1.296-0.087-1.984c-0.026-0.343-0.023-0.696-0.073-1.05
			c-0.056-0.353-0.112-0.713-0.17-1.079c-0.454-2.919-1.532-6.187-3.533-9.334c-1.959-3.167-4.965-6.098-8.767-8.261
			c-3.822-2.097-8.519-3.343-13.434-2.985c-4.908,0.257-9.948,2.214-14.068,5.619c-4.097,3.431-7.15,8.397-8.267,13.962
			c-1.191,5.973,0.009,12.15,2.893,17.044c1.44,2.45,3.256,4.624,5.355,6.366c2.097,1.743,4.427,3.089,6.83,4.037
			c2.398,0.98,4.902,1.453,7.321,1.607c2.425,0.204,4.789-0.045,6.989-0.533c4.416-0.999,8.112-3.161,10.874-5.623
			c0.071-0.064,0.181-0.059,0.245,0.012c0.053,0.059,0.058,0.145,0.018,0.209l0,0.001l-0.263-0.222
			c0.275-0.097,0.385-0.052,0.528-0.069l0.419-0.007c0.277-0.002,0.551-0.004,0.823-0.005c0.543,0.001,1.076,0.002,1.599,0.003
			c1.045,0.008,2.05,0.015,3.012,0.022c1.921,0.024,3.672,0.045,5.234,0.065l-0.103,0.191c-1.743-2.647-3.104-4.713-4.044-6.142
			c-0.443-0.684-0.787-1.215-1.033-1.596C100.022,153.615,99.921,153.43,99.921,153.43z"/>
	</g>
	<g>
		<path style="fill:#E8505B;" d="M79.333,141.675c1.843-0.773,3.154-2.674,3.165-4.914c0.012-2.934-2.209-5.324-4.96-5.336
			c-2.751-0.013-4.991,2.356-5.003,5.29c-0.009,2.261,1.311,4.185,3.174,4.96c-7.667,1.155-7.319,9.487-7.319,9.487l18.129,0.084
			C86.519,151.246,86.933,142.823,79.333,141.675z"/>
	</g>
</g>
<g id="Window">
	<g>
		<g>
			<g>
				<rect x="168.675" y="52.103" style="fill:#FAFAFA;" width="236.899" height="325.611"/>
			</g>
		</g>
		<g>
			<g>
				<rect x="264.099" y="217.698" style="fill:#EBEBEB;" width="101.643" height="16.924"/>
			</g>
			<g>
				<path style="fill:#263238;" d="M274.066,230.223c-1.787,0-3.24-1.454-3.24-3.241c0-1.787,1.453-3.241,3.24-3.241
					c1.787,0,3.241,1.454,3.241,3.241C277.307,228.77,275.853,230.223,274.066,230.223z M274.066,223.991
					c-1.648,0-2.99,1.342-2.99,2.991c0,1.649,1.342,2.991,2.99,2.991c1.649,0,2.991-1.342,2.991-2.991
					C277.057,225.333,275.715,223.991,274.066,223.991z"/>
			</g>
			<g>
				<g>
					<path style="fill:#263238;" d="M344.338,227.256c0,0.144-13.501,0.26-30.151,0.26c-16.656,0-30.154-0.117-30.154-0.26
						s13.498-0.26,30.154-0.26C330.837,226.996,344.338,227.112,344.338,227.256z"/>
				</g>
			</g>
		</g>
		<g>
			<g>
				<rect x="168.675" y="80.49" style="fill:#263238;" width="236.899" height="60.693"/>
			</g>
			<g>
				<rect x="168.675" y="52.103" style="fill:#455A64;" width="236.899" height="17.697"/>
			</g>
			<g>
				<circle style="fill:#263238;" cx="177.039" cy="60.951" r="2.381"/>
			</g>
			<g>
				<path style="fill:#263238;" d="M197.249,60.44c0,1.315-1.066,2.381-2.381,2.381c-1.315,0-2.381-1.066-2.381-2.381
					c0-1.315,1.066-2.381,2.381-2.381C196.183,58.059,197.249,59.125,197.249,60.44z"/>
			</g>
			<g>
				<path style="fill:#263238;" d="M188.77,60.44c0,1.315-1.066,2.381-2.381,2.381c-1.315,0-2.381-1.066-2.381-2.381
					c0-1.315,1.066-2.381,2.381-2.381C187.704,58.059,188.77,59.125,188.77,60.44z"/>
			</g>
			<g>
				<rect x="168.675" y="69.8" style="fill:#E0E0E0;" width="236.899" height="10.69"/>
			</g>
			<g>
				<g>
					<path style="fill:#263238;" d="M250.092,181.217c0,0.144-7.932,0.26-17.714,0.26c-9.785,0-17.715-0.117-17.715-0.26
						c0-0.144,7.93-0.26,17.715-0.26C242.16,180.956,250.092,181.073,250.092,181.217z"/>
				</g>
			</g>
			<g>
				<g>
					<path style="fill:#263238;" d="M250.092,189.535c0,0.144-7.932,0.26-17.714,0.26c-9.785,0-17.715-0.117-17.715-0.26
						s7.93-0.26,17.715-0.26C242.16,189.275,250.092,189.391,250.092,189.535z"/>
				</g>
			</g>
			<g>
				<g>
					<path style="fill:#263238;" d="M234.76,196.412c0,0.144-4.499,0.26-10.048,0.26c-5.551,0-10.049-0.117-10.049-0.26
						s4.498-0.26,10.049-0.26C230.261,196.151,234.76,196.268,234.76,196.412z"/>
				</g>
			</g>
			<g>
				<rect x="265.112" y="151.677" style="fill:#EBEBEB;" width="101.079" height="26.646"/>
			</g>
			<g>
				<path style="fill:#E0E0E0;" d="M279.324,191.154c0,2.904-2.354,5.257-5.258,5.257s-5.258-2.354-5.258-5.257
					c0-2.904,2.354-5.257,5.258-5.257S279.324,188.251,279.324,191.154z"/>
			</g>
			<g>
				<g>
					<path style="fill:#263238;" d="M365.741,187.378c0,0.144-16.932,0.26-37.815,0.26c-20.89,0-37.819-0.117-37.819-0.26
						c0-0.144,16.929-0.26,37.819-0.26C348.809,187.118,365.741,187.235,365.741,187.378z"/>
				</g>
			</g>
			<g>
				<g>
					<path style="fill:#263238;" d="M329.324,194.882c0,0.144-8.779,0.26-19.607,0.26c-10.831,0-19.609-0.117-19.609-0.26
						c0-0.144,8.778-0.26,19.609-0.26C320.544,194.621,329.324,194.738,329.324,194.882z"/>
				</g>
			</g>
			<g>
				<rect x="345.623" y="203.393" style="fill:#E8505B;" width="20.118" height="2.769"/>
			</g>
			<g>
				<rect x="345.623" y="267.857" style="fill:#E8505B;" width="20.118" height="2.769"/>
			</g>
			<g>
				<g>
					<path style="fill:#263238;" d="M345.623,243.083c0,0.144-17.617,0.26-39.343,0.26c-21.734,0-39.347-0.117-39.347-0.26
						c0-0.144,17.613-0.26,39.347-0.26C328.006,242.823,345.623,242.94,345.623,243.083z"/>
				</g>
			</g>
			<g>
				<g>
					<path style="fill:#263238;" d="M345.623,249.834c0,0.144-17.617,0.26-39.343,0.26c-21.734,0-39.347-0.117-39.347-0.26
						s17.613-0.26,39.347-0.26C328.006,249.573,345.623,249.69,345.623,249.834z"/>
				</g>
			</g>
			<g>
				<g>
					<path style="fill:#263238;" d="M345.623,256.584c0,0.144-17.617,0.26-39.343,0.26c-21.734,0-39.347-0.117-39.347-0.26
						c0-0.144,17.613-0.26,39.347-0.26C328.006,256.324,345.623,256.44,345.623,256.584z"/>
				</g>
			</g>
			<g>
				<g>
					<path style="fill:#263238;" d="M292.222,268.735c0,0.144-5.493,0.26-12.268,0.26c-6.777,0-12.269-0.117-12.269-0.26
						c0-0.144,5.492-0.26,12.269-0.26C286.729,268.475,292.222,268.591,292.222,268.735z"/>
				</g>
			</g>
			<g>
				<rect x="264.099" y="285.766" style="fill:#455A64;" width="101.643" height="60.859"/>
			</g>
			<g>
				<polygon style="fill:#263238;" points="264.099,346.625 306.278,319.026 319.204,328.226 345.623,310.534 365.741,326.103 
					365.741,346.625 				"/>
			</g>
			<g>
				<circle style="fill:#263238;" cx="322.123" cy="306.698" r="7.203"/>
			</g>
			<g>
				<rect x="212.554" y="211.839" style="fill:#E0E0E0;" width="10.588" height="10.588"/>
			</g>
			<g>
				<rect x="225.436" y="211.839" style="fill:#EBEBEB;" width="10.588" height="10.588"/>
			</g>
			<g>
				<rect x="238.422" y="211.839" style="fill:#EBEBEB;" width="10.588" height="10.588"/>
			</g>
			<g>
				<rect x="212.554" y="224.494" style="fill:#EBEBEB;" width="10.588" height="10.588"/>
			</g>
			<g>
				<rect x="225.436" y="224.494" style="fill:#F5F5F5;" width="10.588" height="10.588"/>
			</g>
			<g>
				<rect x="238.422" y="224.494" style="fill:#E0E0E0;" width="10.588" height="10.588"/>
			</g>
			<g>
				<rect x="212.554" y="237.148" style="fill:#E0E0E0;" width="10.588" height="10.588"/>
			</g>
			<g>
				<rect x="225.436" y="237.148" style="fill:#EBEBEB;" width="10.588" height="10.588"/>
			</g>
			<g>
				<rect x="238.422" y="237.148" style="fill:#E0E0E0;" width="10.588" height="10.588"/>
			</g>
		</g>
		<g>
			
				<rect x="202.929" y="94.27" transform="matrix(1 -0.0061 0.0061 1 -0.7513 1.4219)" style="fill:#E8505B;" width="58.746" height="58.746"/>
			<path style="opacity:0.2;" d="M244.754,124.912c-0.398,0.444-0.36,1.126,0.084,1.523c0.444,0.397,1.126,0.36,1.523-0.084
				c0.398-0.444,0.36-1.126-0.084-1.523C245.834,124.431,245.152,124.468,244.754,124.912z"/>
			<path style="opacity:0.2;" d="M247.33,123.772c-0.313-0.251-0.855-0.497-1.493-0.5c-0.638-0.004-1.182,0.236-1.499,0.482
				c-0.322,0.248-0.437,0.481-0.381,0.539c0.114,0.131,0.853-0.417,1.876-0.404c1.023-0.001,1.756,0.555,1.872,0.426
				C247.761,124.258,247.649,124.024,247.33,123.772z"/>
			<path style="opacity:0.2;" d="M235.263,125.284c-0.509-0.309-1.173-0.147-1.482,0.363c-0.309,0.509-0.146,1.173,0.363,1.482
				c0.509,0.309,1.173,0.146,1.482-0.363C235.934,126.256,235.772,125.593,235.263,125.284z"/>
			<path style="opacity:0.2;" d="M236.222,124.741c-0.313-0.251-0.855-0.496-1.492-0.5c-0.638-0.004-1.182,0.236-1.499,0.482
				c-0.323,0.249-0.437,0.481-0.381,0.539c0.114,0.131,0.853-0.417,1.876-0.404c1.023-0.002,1.756,0.555,1.872,0.426
				C236.653,125.228,236.541,124.993,236.222,124.741z"/>
			<path style="opacity:0.2;" d="M242.425,130.055c-1.136-2.955-2.178-5.303-2.328-5.246c-0.15,0.058,0.649,2.499,1.785,5.454
				c0.284,0.716,0.554,1.399,0.822,2.074c0.138,0.318,0.243,0.603,0.196,0.765c-0.018,0.144-0.228,0.206-0.496,0.237
				c-1.028,0.149-1.66,0.281-1.652,0.361c0.008,0.08,0.653,0.093,1.691,0.049c0.128-0.007,0.279-0.008,0.456-0.062
				c0.176-0.047,0.386-0.208,0.458-0.43c0.135-0.442-0.053-0.803-0.153-1.111C242.95,131.465,242.693,130.777,242.425,130.055z"/>
			<path style="opacity:0.1;fill:#FFFFFF;" d="M231.732,143.555c0,0,2.322,5.332,9.731,4.618l-0.016-1.053l-0.012-0.766
				l-0.001-0.105C241.434,146.248,236.741,146.658,231.732,143.555z"/>
			<path style="opacity:0.2;fill:#FFFFFF;" d="M247.769,116.115c-0.034,0.021-0.066,0.047-0.103,0.064l-0.053-0.039
				c-1.399,0.589-5.062,1.7-9.805-0.211c-4.002-1.612-8.563-2.191-9.49-1.338c-0.927,0.853-0.818,4.835-4.537,6.298
				c0,0,0.84,7.35-2.068,7.501c-0.005,0.004-0.007,0.01-0.012,0.015c-0.018,0.017-0.042,0.026-0.061,0.042
				c-0.078-1.677-0.152-3.238-0.152-3.238c-0.026-0.011-0.261-0.079-0.608-0.137c-0.548-0.092-1.382-0.152-2.177,0.072
				c-1.162,0.327-2.227,1.267-2.135,3.665c0.153,4.013,3.336,4.078,4.669,3.857l0.959,20.413l19.29-0.118
				c0.073-1.555,0.047-2.672,0.005-4.05l-0.03-0.737c-7.409,0.715-9.731-4.618-9.731-4.618c5.009,3.104,9.702,2.693,9.702,2.693
				l0.001,0.105c0.144-0.024,7.41-1.272,7.456-8.628C248.926,132.184,248.161,121.294,247.769,116.115z M220.043,130.888
				c-0.149,0.126-0.443,0.245-0.804,0.165c-0.742-0.184-1.302-1.122-1.374-2.144c-0.034-0.518,0.066-1.017,0.253-1.427
				c0.165-0.407,0.504-0.78,0.894-0.822c0.187-0.027,0.368,0.016,0.494,0.111c0.123,0.093,0.187,0.211,0.212,0.311
				c0.049,0.208-0.042,0.31-0.057,0.297c-0.027-0.007,0.001-0.11-0.072-0.249c-0.067-0.141-0.265-0.295-0.531-0.223
				c-0.268,0.058-0.499,0.327-0.639,0.704c-0.15,0.37-0.23,0.814-0.199,1.276c0.059,0.914,0.544,1.749,1.087,1.925
				c0.268,0.089,0.517,0.033,0.661-0.039c0.147-0.074,0.21-0.155,0.233-0.14C220.218,130.642,220.195,130.756,220.043,130.888z
				 M244.965,121.562c1.458-0.078,2.478,0.636,2.347,0.883c-0.118,0.272-1.111,0.085-2.294,0.158
				c-1.183,0.048-2.153,0.334-2.298,0.075C242.564,122.445,243.507,121.632,244.965,121.562z M231.315,121.787
				c0.016-0.295,1.063-0.437,2.285-0.491c0.416-0.02,0.863-0.041,1.535-0.074c0.386-0.015,0.646-0.036,0.728,0.088
				c0.079,0.114-0.096,0.394-0.516,0.617c-0.413,0.224-1.029,0.376-1.693,0.408C232.322,122.393,231.299,122.065,231.315,121.787z
				 M235.625,126.766c-0.309,0.509-0.972,0.672-1.482,0.363c-0.509-0.309-0.672-0.972-0.363-1.482
				c0.309-0.509,0.972-0.672,1.482-0.363C235.772,125.593,235.934,126.256,235.625,126.766z M236.597,125.285
				c-0.116,0.129-0.849-0.428-1.872-0.426c-1.023-0.014-1.763,0.534-1.876,0.404c-0.056-0.058,0.059-0.291,0.381-0.539
				c0.317-0.247,0.861-0.486,1.499-0.482c0.638,0.004,1.179,0.25,1.492,0.5C236.541,124.993,236.653,125.228,236.597,125.285z
				 M239.392,136.341c-1.367-0.458-1.967-1.546-1.838-1.599c0.119-0.094,0.815,0.715,2.006,1.106
				c1.181,0.419,2.227,0.205,2.263,0.353C241.893,136.323,240.752,136.815,239.392,136.341z M243.357,133.257
				c-0.073,0.222-0.282,0.383-0.458,0.43c-0.177,0.055-0.328,0.056-0.456,0.062c-1.038,0.044-1.683,0.031-1.691-0.049
				c-0.007-0.08,0.625-0.212,1.652-0.361c0.268-0.031,0.477-0.093,0.496-0.237c0.047-0.162-0.058-0.447-0.196-0.765
				c-0.267-0.675-0.538-1.358-0.822-2.074c-1.136-2.955-1.935-5.397-1.785-5.454c0.15-0.058,1.192,2.29,2.328,5.246
				c0.269,0.721,0.525,1.41,0.779,2.09C243.304,132.455,243.492,132.815,243.357,133.257z M246.361,126.352
				c-0.397,0.444-1.08,0.481-1.523,0.084c-0.444-0.398-0.481-1.08-0.084-1.523c0.398-0.444,1.08-0.481,1.523-0.084
				C246.721,125.226,246.759,125.908,246.361,126.352z M247.705,124.316c-0.116,0.129-0.848-0.428-1.872-0.426
				c-1.023-0.014-1.763,0.535-1.876,0.404c-0.056-0.058,0.059-0.291,0.381-0.539c0.317-0.247,0.861-0.486,1.499-0.482
				c0.638,0.004,1.179,0.25,1.493,0.5C247.649,124.024,247.761,124.258,247.705,124.316z"/>
			<path style="opacity:0.1;fill:#FFFFFF;" d="M219.306,130.811c-0.544-0.176-1.028-1.011-1.087-1.925
				c-0.031-0.462,0.049-0.906,0.199-1.276c0.141-0.377,0.371-0.646,0.639-0.704c0.266-0.072,0.464,0.082,0.531,0.223
				c0.073,0.139,0.045,0.242,0.072,0.249c0.015,0.012,0.106-0.089,0.057-0.297c-0.025-0.1-0.089-0.218-0.212-0.311
				c-0.126-0.094-0.307-0.138-0.494-0.111c-0.39,0.042-0.729,0.416-0.894,0.822c-0.186,0.41-0.287,0.909-0.253,1.427
				c0.071,1.022,0.632,1.959,1.374,2.144c0.361,0.08,0.655-0.039,0.804-0.165c0.153-0.131,0.175-0.246,0.157-0.255
				c-0.023-0.016-0.086,0.065-0.233,0.14C219.823,130.845,219.574,130.9,219.306,130.811z"/>
			<path style="opacity:0.2;" d="M221.147,110.467c0.117-0.075-0.379-0.841-1.4-1.148c-1.018-0.316-1.857,0.042-1.802,0.17
				c0.036,0.146,0.793,0.056,1.65,0.328C220.458,110.07,221.036,110.568,221.147,110.467z"/>
			<path style="opacity:0.2;" d="M221.934,110.701c-0.021-0.232-0.508-1.034-0.723-2.132c-0.249-1.227-0.237-2.298-0.4-2.302
				c-0.122-0.013-0.378,1.062-0.11,2.411c0.235,1.178,0.898,1.944,1.138,2.072c0.039,0.021,0.069,0.029,0.082,0.014
				C221.935,110.753,221.937,110.73,221.934,110.701z"/>
			<path style="opacity:0.2;" d="M245.017,122.602c1.183-0.072,2.175,0.114,2.294-0.158c0.131-0.247-0.888-0.961-2.347-0.883
				c-1.458,0.07-2.401,0.883-2.245,1.115C242.865,122.936,243.834,122.65,245.017,122.602z"/>
			<path style="opacity:0.2;" d="M233.654,122.336c0.664-0.033,1.28-0.185,1.693-0.408c0.42-0.223,0.595-0.503,0.516-0.617
				c-0.082-0.124-0.342-0.103-0.728-0.088c-0.672,0.032-1.119,0.054-1.535,0.074c-1.223,0.054-2.269,0.196-2.285,0.491
				C231.299,122.065,232.322,122.393,233.654,122.336z"/>
			<path style="opacity:0.2;" d="M237.554,134.742c-0.13,0.053,0.471,1.141,1.838,1.599c1.361,0.474,2.502-0.018,2.432-0.14
				c-0.036-0.148-1.082,0.067-2.263-0.353C238.369,135.458,237.673,134.648,237.554,134.742z"/>
			<path style="opacity:0.2;" d="M248.174,104.021c-2.508-2.343-6.538-2.874-9.567-1.26c-1.398,0.745-2.592,1.892-4.102,2.367
				c-1.809,0.568-3.754,0.082-5.645-0.06c-1.891-0.143-4.095,0.242-5.049,1.88c-0.615,1.055-0.584,2.451-1.406,3.354
				c-0.143,0.157-0.301,0.288-0.47,0.399c0.003,0.029,0.001,0.052-0.012,0.063c-0.013,0.014-0.043,0.006-0.082-0.014
				c-1.167,0.699-2.833,0.504-4.189,0.973c-1.56,0.54-2.689,2.073-2.87,3.714c-0.181,1.641,0.535,3.325,1.756,4.436
				c0.701,0.638,1.579,1.132,2.022,1.97c0.524,0.992,0.299,2.172,0.146,3.3c0.795-0.224,1.629-0.164,2.177-0.072
				c0.346,0.058,0.582,0.126,0.608,0.137c0,0,0.074,1.561,0.152,3.238c0.019-0.016,0.043-0.025,0.061-0.042
				c0.005-0.004,0.007-0.01,0.012-0.015c2.909-0.15,2.068-7.501,2.068-7.501c3.719-1.463,3.61-5.445,4.537-6.298
				c0.927-0.853,5.488-0.274,9.49,1.338c4.743,1.911,8.406,0.8,9.805,0.211l0.053,0.039c0.037-0.018,0.068-0.043,0.103-0.064
				c0.084-0.052,0.167-0.106,0.251-0.158c0.141-0.07,0.218-0.114,0.218-0.114l0-0.023c0.814-0.575,1.433-1.422,1.844-2.34
				C251.487,110.348,250.683,106.365,248.174,104.021z"/>
		</g>
		<g>
			<g>
				<path style="fill:#263238;" d="M405.338,52.103l0.236,0.236c-71.375,0.007-151.927,0.016-236.872,0.024h-0.027l0.26-0.26
					c-0.018,121.689-0.035,234.341-0.048,325.611l-0.212-0.212c143.66,0.129,235.15,0.211,236.899,0.212
					c-1.748,0.002-93.239,0.083-236.899,0.212l-0.212,0v-0.212c-0.014-91.27-0.03-203.921-0.048-325.611v-0.261h0.261h0.027
					c84.946,0.009,165.497,0.017,236.872,0.024h0.236l0,0.236c-0.14,192.617-0.234,323.522-0.236,325.611"/>
			</g>
		</g>
	</g>
</g>
<g id="Character">
	<g>
		<g>
			<g>
				<g>
					<path style="fill:#FFBE9D;" d="M84.861,280.111l1.291,2.747c0,0,0.513,1.787,2.077,4.661c0.406,0.746,0.943,1.412,1.575,1.979
						c0.766,0.688,1.822,1.559,2.548,1.857c0.899,0.368,0.882,1.638,0.025,1.85c-0.856,0.212-3.357-0.743-5.489-3.031
						c-2.132-2.288-1.802,2.622-1.714,4.414c0.088,1.792,0.101,7.348-0.428,7.811c-0.776,0.68-1.647-0.027-1.694-1.818
						c-0.047-1.813-0.564-7.153-1.508-7.061c-0.93,0.091-0.356,9.205-0.356,9.205s0.438,1.928-0.649,2.071
						c-1.961,0.258-1.857-9.476-1.825-10.402c0.023-0.644-1.006-0.58-0.994,0.112c0.013,0.713,0.784,9.078-1.21,9.359
						c-1.53,0.216,0.011-8.008-1.113-9.654c-1.124-1.646-0.535,6.355-2.004,6.501c-0.547,0.055-0.963,0.019-0.639-4.625
						c0.333-4.756,3.331-17.495,3.331-17.495l8.899,1.65"/>
				</g>
			</g>
			<g>
				<path style="fill:#FFBE9D;" d="M120.353,211.916c0,0-28.036,27.336-28.664,30.877c-0.628,3.541-4.677,42.766-4.677,42.766
					l-12.8-1.273c0,0-1.208-48.359,2.811-53.269s19.97-23.406,19.97-23.406L120.353,211.916z"/>
			</g>
			<g>
				<g>
					<path style="fill:#EB996E;" d="M78.196,236.126c-0.017,0.017-0.177-0.094-0.37-0.383c-0.185-0.288-0.396-0.774-0.379-1.411
						c0.005-0.627,0.323-1.417,1.021-1.92c0.663-0.511,1.732-0.734,2.64-0.267c0.447,0.224,0.819,0.602,0.989,1.063
						c0.167,0.453,0.158,0.951-0.033,1.362c-0.399,0.866-1.446,1.046-2.018,0.677c-0.606-0.398-0.606-1.06-0.493-1.377
						c0.125-0.349,0.332-0.439,0.339-0.42c0.028,0.025-0.121,0.156-0.177,0.462c-0.058,0.281,0.022,0.824,0.481,1.072
						c0.436,0.252,1.249,0.065,1.507-0.574c0.135-0.31,0.136-0.702,0.001-1.052c-0.133-0.348-0.424-0.647-0.79-0.83
						c-0.743-0.383-1.629-0.218-2.216,0.205c-0.609,0.417-0.905,1.062-0.95,1.618C77.664,235.506,78.273,236.095,78.196,236.126z"/>
				</g>
			</g>
		</g>
		<g>
			<g>
				<path style="fill:#455A64;" d="M179.223,142.145c-0.193,0.536-2.657,35.874-2.657,35.874l14.188-1.078l3.502-30.753
					L179.223,142.145z"/>
				<polygon style="fill:#263238;" points="176.566,178.019 174.658,177.475 177.395,141.624 179.451,142.206 				"/>
				<circle style="fill:#263238;" cx="187.343" cy="150.584" r="0.826"/>
			</g>
			<path style="fill:#FFBE9D;" d="M171.787,195.544l24.991,6.491l-3.951-29.627l0,0l-0.507-1.414l-9.162-1.414l1.096-6.758
				c0.565-3.165,3.714-5.171,6.821-4.346c1.001,0.266,2.054,0.545,3.006,0.799c2.141,0.57,3.948,2.013,4.956,3.987
				c1.738,3.404,3.432,7.124,3.27,6.804l-0.001,0l0.001,0l13.403,36.351c0,0,4.14,7.354-1.483,14.655
				c-4.321,5.61-14.752,1.706-19.66,0.757l-32.014-7.05L171.787,195.544z"/>
			<g>
				<g>
					<g>
						<path style="fill:#263238;" d="M121.91,159.44c0.207,0.568,0.044,1.252-0.397,1.665c-0.441,0.413-1.134,0.532-1.688,0.288
							c-1.051-0.463-1.257-1.867-1.118-3.006c0.14-1.14,0.458-2.365-0.072-3.384c-0.406-0.779-1.218-1.243-1.864-1.838
							c-1.125-1.037-1.78-2.603-1.603-4.123c0.177-1.52,1.233-2.936,2.682-3.427c1.48-0.502,3.356-0.141,4.415-1.29
							c0.768-0.832,0.747-2.127,1.323-3.102c0.894-1.514,2.94-1.858,4.692-1.715c1.752,0.143,3.553,0.605,5.234,0.088
							c1.403-0.432,2.517-1.489,3.817-2.171c2.818-1.479,6.551-0.965,8.864,1.222c2.313,2.187,3.035,5.885,1.716,8.781
							c-0.474,1.04-1.22,2.003-2.255,2.489"/>
						<g>
							<g>
								<g>
									<g>
										<path style="fill:#FFBE9D;" d="M123.657,189.277l16.559-1.322c0.103-1.934-0.035-9.413-0.035-9.413s6.89-1.071,6.975-7.96
											c0.085-6.888-1.109-22.706-1.109-22.706l0,0c-7.974-3.427-17.178-2.27-24.055,3.024l-1.021,0.786L123.657,189.277z"/>
									</g>
									<g>
										<g>
											<path style="fill:#263238;" d="M144.461,159.714c-0.409-0.371-0.44-1.004-0.069-1.413
												c0.371-0.409,1.004-0.44,1.413-0.069c0.409,0.371,0.44,1.004,0.069,1.413
												C145.503,160.055,144.87,160.085,144.461,159.714z"/>
										</g>
										<g>
											<g>
												<path style="fill:#263238;" d="M146.131,158.142c-0.108,0.119-0.784-0.401-1.733-0.406
													c-0.949-0.018-1.637,0.486-1.742,0.364c-0.051-0.054,0.056-0.269,0.357-0.498c0.295-0.227,0.801-0.446,1.392-0.439
													c0.591,0.007,1.092,0.238,1.381,0.472C146.081,157.872,146.183,158.089,146.131,158.142z"/>
											</g>
										</g>
									</g>
									<g>
										<g>
											<path style="fill:#263238;" d="M135.201,158.969c0.471,0.29,0.618,0.906,0.328,1.376
												c-0.289,0.471-0.905,0.617-1.376,0.328c-0.471-0.289-0.617-0.905-0.328-1.376S134.73,158.68,135.201,158.969z"/>
										</g>
										<g>
											<g>
												<path style="fill:#263238;" d="M135.826,158.978c-0.108,0.119-0.784-0.401-1.733-0.406
													c-0.949-0.018-1.637,0.486-1.742,0.364c-0.051-0.054,0.056-0.269,0.357-0.498c0.295-0.227,0.801-0.446,1.393-0.439
													c0.591,0.007,1.092,0.238,1.381,0.472C135.776,158.707,135.878,158.925,135.826,158.978z"/>
											</g>
										</g>
									</g>
									<g>
										<g>
											<path style="fill:#263238;" d="M139.63,166.804c-0.006-0.074,0.58-0.193,1.534-0.325
												c0.248-0.027,0.443-0.083,0.461-0.217c0.045-0.15-0.051-0.415-0.178-0.711c-0.244-0.627-0.491-1.262-0.75-1.928
												c-1.036-2.747-1.764-5.015-1.624-5.068c0.139-0.053,1.092,2.131,2.129,4.877c0.245,0.67,0.479,1.31,0.711,1.943
												c0.091,0.287,0.264,0.622,0.136,1.031c-0.069,0.205-0.264,0.353-0.428,0.396c-0.164,0.05-0.304,0.05-0.423,0.055
												C140.235,166.894,139.637,166.879,139.63,166.804z"/>
										</g>
									</g>
									<g>
										<path style="fill:#FFFFFF;" d="M136.548,167.852c1.242,0.495,2.726,1.115,4.653,1.352c0,0-1.108,1.77-3.094,1.044
											C136.045,169.493,136.548,167.852,136.548,167.852z"/>
									</g>
									<g>
										<path style="fill:#EB996E;" d="M140.192,178.442c0,0-4.353,0.354-8.98-2.552c0,0,2.123,4.958,8.996,4.337L140.192,178.442
											z"/>
									</g>
								</g>
							</g>
						</g>
						<path style="fill:#263238;" d="M146.188,149.609c0,0-4.03,2.333-9.671,0.02c-3.702-1.518-7.927-2.08-8.791-1.294
							c-0.864,0.786-0.786,4.478-4.242,5.814c0,0,0.762,7-2.054,6.957c-2.817-0.043-1.872-11.042-1.872-11.042l6.598-3.85
							l7.365-1.964l7.112,0.471l5.556,1.088V149.609z"/>
						<g>
							<g>
								<path style="fill:#FFBE9D;" d="M121.819,158.821c-0.117-0.051-4.733-1.4-4.583,3.309c0.15,4.709,4.847,3.587,4.851,3.452
									C122.091,165.447,121.819,158.821,121.819,158.821z"/>
							</g>
							<g>
								<g>
									<path style="fill:#EB996E;" d="M120.592,163.844c-0.021-0.015-0.08,0.06-0.217,0.128c-0.133,0.066-0.364,0.116-0.613,0.032
										c-0.503-0.167-0.948-0.943-0.997-1.791c-0.026-0.428,0.051-0.839,0.192-1.182c0.133-0.349,0.348-0.597,0.597-0.65
										c0.247-0.065,0.43,0.079,0.491,0.21c0.067,0.13,0.04,0.225,0.066,0.232c0.014,0.011,0.099-0.082,0.055-0.275
										c-0.023-0.093-0.081-0.202-0.195-0.289c-0.116-0.088-0.284-0.13-0.458-0.105c-0.362,0.037-0.679,0.381-0.834,0.757
										c-0.175,0.379-0.271,0.841-0.242,1.322c0.06,0.948,0.575,1.82,1.262,1.995c0.334,0.076,0.607-0.033,0.746-0.149
										C120.587,163.958,120.609,163.852,120.592,163.844z"/>
								</g>
							</g>
						</g>
						<g>
							<path style="fill:#263238;" d="M118.622,144.226c-0.053-0.129,0.73-0.465,1.678-0.166c0.951,0.293,1.403,1.015,1.286,1.09
								c-0.112,0.099-0.648-0.356-1.441-0.593C119.357,144.302,118.657,144.372,118.622,144.226z"/>
						</g>
						<g>
							<path style="fill:#263238;" d="M121.298,141.255c0.161,0.006,0.153,0.999,0.376,2.133c0.215,1.141,0.747,1.948,0.628,2.043
								c-0.093,0.102-0.891-0.661-1.138-1.937C120.922,142.237,121.174,141.242,121.298,141.255z"/>
						</g>
						<g>
							<path style="fill:#263238;" d="M141.518,156.595c-0.154-0.234,0.724-1.002,2.086-1.059c1.363-0.064,2.305,0.622,2.173,0.869
								c-0.12,0.27-1.039,0.111-2.126,0.171C142.563,156.613,141.662,156.853,141.518,156.595z"/>
						</g>
						<g>
							<path style="fill:#263238;" d="M130.95,155.711c-0.154-0.234,0.724-1.002,2.086-1.059c1.363-0.064,2.305,0.622,2.173,0.87
								c-0.12,0.27-1.039,0.111-2.126,0.171C131.995,155.729,131.094,155.969,130.95,155.711z"/>
						</g>
					</g>
					<g>
						<path style="fill:#455A64;" d="M91.966,446.785l-1.642,6.895c0,0-11.276,14.645-14.754,13.929
							c-2.279-0.469,0.522-4.29,4.811-15.414l0.9-4.595L91.966,446.785z"/>
						<g>
							<path style="fill:#263238;" d="M75.112,465.446c0.023-0.022,0.111,0.322,0.602,0.576c0.474,0.267,1.355,0.285,2.157-0.301
								c1.538-1.218,3.518-3.143,5.61-5.318c2.088-2.191,3.842-4.298,5.076-5.85c0.547-0.705,1.025-1.32,1.441-1.856
								c0.139-0.18,0.268-0.347,0.391-0.506c0.091-0.114,0.142-0.172,0.148-0.168c0.006,0.004-0.034,0.07-0.114,0.193
								c-0.113,0.167-0.232,0.341-0.359,0.529c-0.317,0.456-0.789,1.107-1.39,1.898c-1.206,1.578-2.947,3.707-5.041,5.904
								c-2.105,2.186-4.085,4.083-5.68,5.298c-0.423,0.274-0.865,0.448-1.274,0.468c-0.406,0.021-0.755-0.078-1.002-0.219
								c-0.252-0.136-0.396-0.316-0.474-0.441C75.124,465.525,75.112,465.446,75.112,465.446z"/>
						</g>
						<g>
							<path style="fill:#263238;" d="M76.709,460.738c-0.008-0.02,0.343-0.147,0.928-0.104c0.581,0.037,1.372,0.27,2.126,0.738
								c0.763,0.455,1.31,1.099,1.545,1.634c0.243,0.533,0.262,0.9,0.242,0.902c-0.036,0.01-0.108-0.342-0.374-0.835
								c-0.26-0.495-0.786-1.082-1.523-1.523c-0.728-0.452-1.479-0.696-2.033-0.768C77.065,460.702,76.715,460.774,76.709,460.738z"
								/>
						</g>
						<g>
							<path style="fill:#263238;" d="M87.384,457.301c-0.013,0.004-0.064-0.112-0.136-0.329c-0.071-0.217-0.16-0.538-0.223-0.945
								c-0.142-0.806-0.063-2.009,0.525-3.137c0.575-1.141,1.527-1.888,2.281-2.215c0.378-0.169,0.704-0.251,0.931-0.287
								c0.228-0.034,0.355-0.034,0.356-0.021c0.008,0.041-0.506,0.08-1.224,0.441c-0.712,0.35-1.607,1.084-2.159,2.177
								c-0.567,1.091-0.665,2.23-0.565,3.024C87.262,456.808,87.42,457.291,87.384,457.301z"/>
						</g>
						<g>
							<path style="fill:#263238;" d="M91.248,447.954c0.051,0.018-0.203,0.981-0.414,2.2c-0.205,1.222-0.527,2.191-0.59,2.168
								c-0.046-0.017,0.179-0.984,0.385-2.207C90.841,448.891,91.191,447.933,91.248,447.954z"/>
						</g>
						<g>
							<path style="fill:#263238;" d="M80.182,453.167c-0.01-0.052,0.652-0.172,1.446,0.014c0.796,0.18,1.338,0.578,1.306,0.62
								c-0.031,0.054-0.596-0.247-1.353-0.417C80.826,453.206,80.186,453.229,80.182,453.167z"/>
						</g>
						<g>
							<path style="fill:#263238;" d="M79.95,454.348c-0.016-0.051,0.542-0.211,1.219-0.047c0.679,0.158,1.105,0.552,1.068,0.59
								c-0.035,0.051-0.486-0.242-1.116-0.387C80.493,454.35,79.959,454.409,79.95,454.348z"/>
						</g>
						<g>
							<path style="fill:#263238;" d="M79.05,455.83c-0.033-0.044,0.536-0.335,1.263-0.165c0.729,0.161,1.117,0.669,1.067,0.695
								c-0.042,0.046-0.455-0.349-1.114-0.492C79.611,455.712,79.068,455.889,79.05,455.83z"/>
						</g>
						<g>
							<path style="fill:#263238;" d="M80.958,452.672c-0.008-0.034,0.521-0.142,1.324-0.454c0.4-0.158,0.868-0.37,1.36-0.654
								c0.245-0.142,0.499-0.302,0.749-0.479c0.229-0.17,0.481-0.419,0.472-0.684c-0.005-0.273-0.341-0.411-0.598-0.345
								c-0.27,0.063-0.49,0.27-0.696,0.464c-0.415,0.391-0.769,0.764-1.058,1.086c-0.576,0.644-0.897,1.075-0.923,1.056
								c-0.011-0.008,0.055-0.126,0.191-0.328c0.137-0.202,0.344-0.487,0.621-0.824c0.277-0.337,0.624-0.724,1.036-1.128
								c0.204-0.196,0.435-0.436,0.783-0.524c0.323-0.095,0.826,0.082,0.852,0.532c-0.005,0.424-0.314,0.669-0.561,0.861
								c-0.261,0.182-0.519,0.34-0.774,0.481c-0.507,0.281-0.99,0.483-1.403,0.626c-0.414,0.141-0.758,0.225-0.998,0.271
								C81.095,452.674,80.96,452.685,80.958,452.672z"/>
						</g>
						<g>
							<path style="fill:#263238;" d="M81.55,452.53c-0.035,0.004-0.081-0.486-0.208-1.259c-0.07-0.384-0.17-0.841-0.384-1.303
								c-0.108-0.227-0.244-0.466-0.42-0.664c-0.172-0.195-0.433-0.361-0.642-0.238c-0.205,0.113-0.239,0.429-0.207,0.685
								c0.039,0.264,0.12,0.525,0.219,0.756c0.199,0.468,0.482,0.842,0.736,1.135C81.165,452.221,81.573,452.5,81.55,452.53
								c-0.007,0.01-0.117-0.046-0.299-0.175c-0.181-0.128-0.437-0.327-0.717-0.614c-0.275-0.289-0.582-0.667-0.803-1.157
								c-0.11-0.246-0.199-0.512-0.246-0.809c-0.03-0.279-0.035-0.677,0.309-0.892c0.367-0.193,0.716,0.077,0.894,0.284
								c0.2,0.229,0.332,0.476,0.443,0.721c0.216,0.492,0.303,0.967,0.355,1.36c0.05,0.395,0.065,0.715,0.073,0.936
								C81.568,452.406,81.564,452.528,81.55,452.53z"/>
						</g>
					</g>
					<g>
						<g>
							<g>
								<g>
									<g>
										<path style="fill:#455A64;" d="M148.021,450.269l0.053-9.195l-17.223-0.209l-0.219,13.452l1.067,0.081
											c4.749,0.321,24.171,1.3,27.36,0.375C162.615,453.742,148.021,450.269,148.021,450.269z"/>
									</g>
								</g>
							</g>
							<g>
								<g>
									<g>
										<path style="fill:#263238;" d="M130.393,453.918c0,0.007,0.102,0.019,0.296,0.036c0.255,0.019,0.535,0.039,0.85,0.062
											c0.85,0.047,1.895,0.106,3.129,0.175c2.643,0.129,6.296,0.258,10.333,0.313c4.038,0.054,7.694,0.023,10.339-0.035
											c1.235-0.036,2.281-0.066,3.132-0.09c0.316-0.015,0.595-0.027,0.851-0.039c0.195-0.011,0.297-0.021,0.296-0.028
											c0-0.007-0.103-0.012-0.297-0.014c-0.256,0-0.536,0-0.852,0c-0.851,0.006-1.897,0.014-3.132,0.024
											c-2.645,0.02-6.299,0.027-10.335-0.026c-4.035-0.055-7.687-0.161-10.33-0.252c-1.234-0.043-2.28-0.079-3.13-0.108
											c-0.316-0.008-0.596-0.016-0.852-0.023C130.496,453.909,130.394,453.911,130.393,453.918z"/>
									</g>
								</g>
							</g>
							<g>
								<g>
									<g>
										<path style="fill:#263238;" d="M153.59,454.687c0.063,0.009,0.122-0.738,0.604-1.487c0.469-0.757,1.118-1.131,1.082-1.185
											c-0.012-0.052-0.754,0.263-1.259,1.073C153.503,453.893,153.538,454.699,153.59,454.687z"/>
									</g>
								</g>
							</g>
							<g>
								<g>
									<g>
										<path style="fill:#263238;" d="M148.541,452.044c0.048,0.032,0.295-0.261,0.551-0.654
											c0.256-0.393,0.425-0.736,0.377-0.768c-0.048-0.032-0.295,0.261-0.551,0.654
											C148.662,451.669,148.493,452.013,148.541,452.044z"/>
									</g>
								</g>
							</g>
							<g>
								<g>
									<g>
										<path style="fill:#263238;" d="M147.156,451.289c0.038,0.043,0.312-0.135,0.612-0.397c0.3-0.263,0.513-0.511,0.475-0.554
											c-0.038-0.043-0.312,0.134-0.612,0.397C147.331,450.997,147.118,451.246,147.156,451.289z"/>
									</g>
								</g>
							</g>
							<g>
								<g>
									<g>
										<path style="fill:#263238;" d="M146.295,449.652c-0.001,0.058,0.4,0.114,0.897,0.126c0.497,0.012,0.901-0.025,0.902-0.083
											c0.001-0.058-0.4-0.114-0.897-0.126C146.701,449.558,146.296,449.595,146.295,449.652z"/>
									</g>
								</g>
							</g>
							<g>
								<g>
									<g>
										<path style="fill:#263238;" d="M146.007,448.502c-0.02,0.051,0.416,0.255,0.999,0.304
											c0.583,0.053,1.048-0.071,1.037-0.125c-0.009-0.06-0.465-0.032-1.019-0.083
											C146.47,448.552,146.026,448.445,146.007,448.502z"/>
									</g>
								</g>
							</g>
							<g>
								<g>
									<g>
										<path style="fill:#263238;" d="M149.145,450.549c-0.002,0.023,0.423,0.081,1.107,0.007
											c0.341-0.037,0.746-0.112,1.182-0.245c0.217-0.074,0.443-0.129,0.678-0.269c0.11-0.072,0.233-0.173,0.278-0.34
											c0.048-0.165-0.038-0.353-0.162-0.445c-1.051-0.561-2.118,0.02-2.517,0.562c-0.22,0.276-0.322,0.547-0.37,0.734
											c-0.047,0.189-0.045,0.297-0.032,0.299c0.039,0.015,0.08-0.435,0.516-0.938c0.215-0.246,0.539-0.485,0.953-0.602
											c0.392-0.111,0.949-0.135,1.318,0.107c0.174,0.132,0.103,0.338-0.094,0.452c-0.184,0.115-0.42,0.184-0.626,0.258
											c-0.421,0.139-0.812,0.228-1.143,0.282C149.567,450.519,149.145,450.515,149.145,450.549z"/>
									</g>
								</g>
							</g>
							<g>
								<g>
									<g>
										<path style="fill:#263238;" d="M149.431,450.608c0.016,0.012,0.183-0.268,0.137-0.767
											c-0.024-0.245-0.11-0.536-0.292-0.812c-0.192-0.248-0.439-0.59-0.914-0.576c-0.257,0.03-0.386,0.32-0.348,0.507
											c0.018,0.194,0.103,0.362,0.182,0.497c0.161,0.279,0.344,0.505,0.514,0.676c0.343,0.343,0.615,0.477,0.628,0.456
											c0.02-0.027-0.218-0.201-0.519-0.556c-0.15-0.177-0.312-0.401-0.455-0.67c-0.149-0.236-0.248-0.657,0.031-0.704
											c0.277-0.023,0.557,0.256,0.723,0.479c0.171,0.242,0.264,0.501,0.304,0.723
											C149.501,450.313,149.394,450.599,149.431,450.608z"/>
									</g>
								</g>
							</g>
							<g>
								<g>
									<g>
										<path style="fill:#263238;" d="M130.805,449.21c0.003,0.039,0.494-0.041,1.271,0.061c0.77,0.095,1.838,0.426,2.762,1.18
											c0.922,0.756,1.457,1.738,1.704,2.474c0.254,0.742,0.273,1.238,0.312,1.234c0.013-0.001,0.02-0.124,0.005-0.347
											c-0.015-0.223-0.064-0.545-0.176-0.931c-0.216-0.767-0.75-1.802-1.712-2.59c-0.963-0.786-2.083-1.105-2.878-1.165
											c-0.4-0.033-0.726-0.017-0.948,0.012C130.923,449.166,130.803,449.198,130.805,449.21z"/>
									</g>
								</g>
							</g>
							<g>
								<g>
									<g>
										<path style="fill:#263238;" d="M132.681,442.066c-0.058-0.001-0.145,1.582-0.194,3.535
											c-0.05,1.955-0.043,3.54,0.014,3.541c0.058,0.001,0.145-1.581,0.194-3.536
											C132.745,443.653,132.739,442.067,132.681,442.066z"/>
									</g>
								</g>
							</g>
							<g>
								<g>
									<g>
										<path style="fill:#263238;" d="M139.066,452.606c-0.008,0.054,1.112,0.252,2.511,0.281c1.4,0.033,2.527-0.115,2.521-0.17
											c-0.005-0.061-1.13-0.006-2.517-0.039C140.196,452.65,139.074,452.545,139.066,452.606z"/>
									</g>
								</g>
							</g>
							<g>
								<g>
									<g>
										<path style="fill:#263238;" d="M135.691,452.558c-0.043,0.042,0.089,0.24,0.201,0.499
											c0.115,0.258,0.171,0.489,0.231,0.486c0.056,0,0.092-0.271-0.04-0.57C135.953,452.674,135.729,452.516,135.691,452.558z"
											/>
									</g>
								</g>
							</g>
							<g>
								<g>
									<g>
										<path style="fill:#263238;" d="M134.439,450.958c-0.042,0.04,0.067,0.221,0.243,0.403
											c0.176,0.183,0.352,0.299,0.394,0.259c0.041-0.04-0.067-0.221-0.243-0.404
											C134.657,451.034,134.481,450.918,134.439,450.958z"/>
									</g>
								</g>
							</g>
							<g>
								<g>
									<g>
										<path style="fill:#263238;" d="M132.628,450.212c0.011,0.059,0.24,0.059,0.492,0.152c0.254,0.086,0.432,0.229,0.478,0.191
											c0.047-0.031-0.095-0.278-0.409-0.387C132.877,450.055,132.611,450.158,132.628,450.212z"/>
									</g>
								</g>
							</g>
							<g>
								<g>
									<g>
										<path style="fill:#263238;" d="M131.337,449.854c-0.021,0.053,0.076,0.143,0.218,0.2c0.142,0.057,0.275,0.06,0.297,0.007
											c0.021-0.053-0.076-0.143-0.219-0.2C131.491,449.803,131.358,449.801,131.337,449.854z"/>
									</g>
								</g>
							</g>
						</g>
					</g>
					<g>
						<polyline style="fill:#263238;" points="159.741,267.656 151.702,446.307 124.882,446.87 129.336,297.306 99.168,448.013 
							73.668,448.013 107.725,267.656 						"/>
						<g>
							<g>
								<path style="fill:#455A64;" d="M80.088,445.428c0.142,0.024,0.201,0.374,0.133,0.782c-0.069,0.408-0.239,0.72-0.381,0.696
									c-0.142-0.024-0.201-0.374-0.133-0.782C79.776,445.716,79.946,445.404,80.088,445.428z"/>
							</g>
							<g>
								<path style="fill:#455A64;" d="M81.07,439.579c0.142,0.024,0.147,0.698,0.011,1.505c-0.136,0.808-0.36,1.443-0.502,1.419
									c-0.142-0.024-0.147-0.698-0.011-1.505C80.703,440.191,80.928,439.556,81.07,439.579z"/>
							</g>
							<g>
								<path style="fill:#455A64;" d="M82.053,433.73c0.142,0.024,0.147,0.698,0.011,1.506c-0.136,0.808-0.361,1.443-0.503,1.419
									s-0.147-0.698-0.011-1.506C81.686,434.341,81.911,433.706,82.053,433.73z"/>
							</g>
							<g>
								<path style="fill:#455A64;" d="M83.036,427.88c0.142,0.024,0.147,0.698,0.011,1.506c-0.136,0.808-0.361,1.443-0.503,1.419
									c-0.142-0.024-0.147-0.698-0.011-1.506C82.67,428.491,82.895,427.856,83.036,427.88z"/>
							</g>
							<g>
								<path style="fill:#455A64;" d="M84.022,422.029c0.142,0.024,0.146,0.698,0.01,1.506c-0.136,0.808-0.361,1.443-0.503,1.419
									c-0.142-0.024-0.146-0.698-0.01-1.506C83.655,422.641,83.88,422.005,84.022,422.029z"/>
							</g>
							<g>
								<path style="fill:#455A64;" d="M85.009,416.179c0.142,0.024,0.146,0.698,0.01,1.506c-0.136,0.808-0.362,1.443-0.504,1.419
									c-0.142-0.024-0.146-0.698-0.01-1.506C84.642,416.79,84.868,416.155,85.009,416.179z"/>
							</g>
							<g>
								<path style="fill:#455A64;" d="M86,410.328c0.142,0.024,0.146,0.698,0.009,1.506c-0.137,0.808-0.363,1.443-0.504,1.419
									s-0.146-0.698-0.009-1.506C85.632,410.94,85.858,410.305,86,410.328z"/>
							</g>
							<g>
								<path style="fill:#455A64;" d="M86.993,404.479c0.142,0.024,0.145,0.699,0.008,1.507c-0.137,0.809-0.364,1.444-0.505,1.42
									c-0.142-0.024-0.145-0.699-0.008-1.507C86.625,405.091,86.851,404.455,86.993,404.479z"/>
							</g>
							<g>
								<path style="fill:#455A64;" d="M87.989,398.63c0.142,0.024,0.145,0.698,0.007,1.506c-0.138,0.808-0.364,1.443-0.506,1.419
									c-0.142-0.024-0.145-0.698-0.007-1.506C87.621,399.241,87.848,398.605,87.989,398.63z"/>
							</g>
							<g>
								<path style="fill:#455A64;" d="M88.99,392.781c0.142,0.024,0.145,0.699,0.006,1.506c-0.138,0.808-0.365,1.443-0.507,1.418
									c-0.142-0.024-0.145-0.698-0.006-1.506C88.621,393.392,88.848,392.757,88.99,392.781z"/>
							</g>
							<g>
								<path style="fill:#455A64;" d="M89.995,386.933c0.142,0.024,0.144,0.699,0.005,1.506c-0.139,0.808-0.366,1.442-0.508,1.418
									c-0.142-0.024-0.144-0.699-0.005-1.506C89.626,387.544,89.853,386.909,89.995,386.933z"/>
							</g>
							<g>
								<path style="fill:#455A64;" d="M91.005,381.087c0.142,0.025,0.143,0.699,0.004,1.506c-0.14,0.807-0.368,1.442-0.509,1.417
									c-0.142-0.024-0.143-0.699-0.004-1.506C90.635,381.697,90.863,381.062,91.005,381.087z"/>
							</g>
							<g>
								<path style="fill:#455A64;" d="M92.02,375.241c0.142,0.025,0.143,0.699,0.002,1.506c-0.14,0.807-0.369,1.441-0.511,1.417
									c-0.142-0.025-0.143-0.699-0.002-1.506C91.649,375.85,91.878,375.216,92.02,375.241z"/>
							</g>
							<g>
								<path style="fill:#455A64;" d="M93.04,369.396c0.142,0.025,0.142,0.699,0.001,1.506c-0.141,0.807-0.37,1.441-0.512,1.416
									c-0.142-0.025-0.142-0.699-0.001-1.506C92.67,370.005,92.899,369.371,93.04,369.396z"/>
							</g>
							<g>
								<path style="fill:#455A64;" d="M94.068,363.552c0.142,0.025,0.141,0.699-0.001,1.506c-0.142,0.807-0.372,1.441-0.514,1.416
									c-0.142-0.025-0.141-0.699,0.001-1.506C93.696,364.161,93.926,363.527,94.068,363.552z"/>
							</g>
							<g>
								<path style="fill:#455A64;" d="M95.102,357.709c0.142,0.025,0.141,0.699-0.002,1.506c-0.143,0.807-0.374,1.44-0.515,1.415
									c-0.142-0.025-0.14-0.699,0.003-1.506C94.729,358.318,94.96,357.684,95.102,357.709z"/>
							</g>
							<g>
								<path style="fill:#455A64;" d="M96.143,351.868c0.142,0.025,0.14,0.7-0.004,1.506c-0.144,0.807-0.376,1.44-0.517,1.415
									c-0.141-0.025-0.14-0.699,0.005-1.506C95.77,352.476,96.001,351.842,96.143,351.868z"/>
							</g>
							<g>
								<path style="fill:#455A64;" d="M97.192,346.028c0.142,0.026,0.139,0.7-0.006,1.506c-0.145,0.806-0.378,1.439-0.519,1.414
									c-0.142-0.026-0.139-0.7,0.007-1.506C96.818,346.635,97.05,346.002,97.192,346.028z"/>
							</g>
							<g>
								<path style="fill:#455A64;" d="M98.249,340.189c0.142,0.026,0.138,0.7-0.009,1.506c-0.146,0.806-0.38,1.439-0.521,1.413
									c-0.141-0.026-0.138-0.7,0.009-1.506C97.874,340.796,98.107,340.163,98.249,340.189z"/>
							</g>
							<g>
								<path style="fill:#455A64;" d="M99.315,334.352c0.142,0.026,0.137,0.7-0.011,1.506c-0.147,0.806-0.382,1.438-0.523,1.412
									c-0.141-0.026-0.136-0.7,0.011-1.506C98.939,334.959,99.173,334.326,99.315,334.352z"/>
							</g>
							<g>
								<path style="fill:#455A64;" d="M100.39,328.517c0.141,0.026,0.135,0.7-0.013,1.506c-0.149,0.806-0.384,1.438-0.526,1.411
									c-0.141-0.026-0.135-0.7,0.013-1.506C100.013,329.123,100.249,328.491,100.39,328.517z"/>
							</g>
							<g>
								<path style="fill:#455A64;" d="M101.475,322.683c0.141,0.026,0.134,0.701-0.016,1.506c-0.15,0.806-0.386,1.437-0.528,1.411
									c-0.141-0.026-0.134-0.701,0.016-1.506C101.098,323.289,101.334,322.657,101.475,322.683z"/>
							</g>
							<g>
								<path style="fill:#455A64;" d="M102.571,316.852c0.141,0.027,0.133,0.701-0.019,1.506c-0.152,0.805-0.389,1.436-0.531,1.41
									c-0.141-0.027-0.133-0.701,0.019-1.506C102.192,317.457,102.43,316.825,102.571,316.852z"/>
							</g>
							<g>
								<path style="fill:#455A64;" d="M103.678,311.023c0.141,0.027,0.132,0.701-0.022,1.506c-0.153,0.805-0.392,1.435-0.533,1.409
									c-0.141-0.027-0.132-0.701,0.022-1.506C103.298,311.626,103.537,310.996,103.678,311.023z"/>
							</g>
							<g>
								<path style="fill:#455A64;" d="M104.797,305.195c0.141,0.027,0.13,0.702-0.025,1.506c-0.155,0.805-0.395,1.435-0.536,1.408
									c-0.141-0.027-0.13-0.701,0.025-1.506C104.416,305.798,104.656,305.168,104.797,305.195z"/>
							</g>
							<g>
								<path style="fill:#455A64;" d="M105.928,299.371c0.141,0.028,0.129,0.702-0.028,1.506c-0.157,0.804-0.398,1.434-0.539,1.406
									c-0.141-0.027-0.129-0.702,0.028-1.506C105.546,299.973,105.787,299.343,105.928,299.371z"/>
							</g>
							<g>
								<path style="fill:#455A64;" d="M107.073,293.549c0.141,0.028,0.127,0.702-0.031,1.506c-0.159,0.804-0.401,1.433-0.543,1.405
									c-0.141-0.028-0.127-0.702,0.032-1.506C106.689,294.15,106.932,293.521,107.073,293.549z"/>
							</g>
							<g>
								<path style="fill:#455A64;" d="M108.231,287.729c0.141,0.028,0.125,0.702-0.035,1.506c-0.16,0.804-0.405,1.432-0.546,1.404
									c-0.141-0.028-0.125-0.702,0.035-1.506C107.846,288.33,108.09,287.701,108.231,287.729z"/>
							</g>
							<g>
								<path style="fill:#455A64;" d="M109.404,281.913c0.141,0.029,0.123,0.703-0.039,1.506c-0.163,0.803-0.409,1.431-0.549,1.402
									c-0.141-0.029-0.123-0.702,0.039-1.505C109.017,282.512,109.263,281.884,109.404,281.913z"/>
							</g>
							<g>
								<path style="fill:#455A64;" d="M110.594,276.095c0.141,0.029,0.121,0.704-0.044,1.508c-0.165,0.804-0.413,1.432-0.554,1.403
									c-0.141-0.029-0.121-0.704,0.044-1.508C110.205,276.695,110.453,276.066,110.594,276.095z"/>
							</g>
							<g>
								<path style="fill:#455A64;" d="M111.501,271.717c0.141,0.029,0.187,0.382,0.103,0.786c-0.084,0.405-0.267,0.71-0.407,0.681
									c-0.141-0.029-0.187-0.381-0.103-0.786C111.177,271.993,111.36,271.688,111.501,271.717z"/>
							</g>
						</g>
						<g>
							<g>
								<path style="fill:#455A64;" d="M129.505,445.409c0.144,0.007,0.243,0.348,0.221,0.762c-0.021,0.414-0.155,0.743-0.299,0.735
									c-0.144-0.008-0.243-0.349-0.221-0.762C129.228,445.731,129.362,445.402,129.505,445.409z"/>
							</g>
							<g>
								<path style="fill:#455A64;" d="M129.752,439.457c0.144,0.005,0.235,0.676,0.204,1.498c-0.031,0.823-0.173,1.484-0.317,1.478
									c-0.144-0.006-0.235-0.677-0.204-1.498C129.467,440.114,129.608,439.453,129.752,439.457z"/>
							</g>
							<g>
								<path style="fill:#455A64;" d="M129.936,433.504c0.144,0.004,0.241,0.674,0.217,1.496c-0.024,0.822-0.16,1.485-0.303,1.481
									c-0.144-0.004-0.241-0.674-0.217-1.496C129.656,434.163,129.792,433.5,129.936,433.504z"/>
							</g>
							<g>
								<path style="fill:#455A64;" d="M130.087,427.549c0.144,0.004,0.244,0.673,0.224,1.495c-0.02,0.822-0.153,1.486-0.297,1.482
									c-0.144-0.004-0.244-0.673-0.224-1.495C129.81,428.21,129.943,427.546,130.087,427.549z"/>
							</g>
							<g>
								<path style="fill:#455A64;" d="M130.229,421.593c0.144,0.003,0.244,0.673,0.225,1.495c-0.02,0.823-0.152,1.487-0.296,1.483
									c-0.144-0.003-0.244-0.673-0.225-1.496C129.952,422.253,130.085,421.589,130.229,421.593z"/>
							</g>
							<g>
								<path style="fill:#455A64;" d="M130.383,415.634c0.144,0.004,0.242,0.674,0.22,1.497c-0.022,0.823-0.157,1.487-0.301,1.483
									c-0.144-0.004-0.242-0.674-0.22-1.497C130.105,416.294,130.24,415.63,130.383,415.634z"/>
							</g>
							<g>
								<path style="fill:#455A64;" d="M130.58,409.677c0.144,0.006,0.236,0.677,0.207,1.498c-0.029,0.822-0.169,1.484-0.313,1.48
									c-0.144-0.005-0.236-0.675-0.207-1.498C130.296,410.334,130.436,409.671,130.58,409.677z"/>
							</g>
							<g>
								<path style="fill:#455A64;" d="M130.83,403.725c0.144,0.006,0.232,0.677,0.198,1.499c-0.035,0.822-0.179,1.483-0.323,1.477
									c-0.144-0.006-0.232-0.677-0.198-1.499C130.542,404.38,130.687,403.719,130.83,403.725z"/>
							</g>
							<g>
								<path style="fill:#455A64;" d="M131.063,397.772c0.144,0.005,0.235,0.676,0.204,1.498c-0.031,0.822-0.173,1.484-0.317,1.478
									c-0.144-0.005-0.235-0.676-0.204-1.498C130.777,398.429,130.919,397.767,131.063,397.772z"/>
							</g>
							<g>
								<path style="fill:#455A64;" d="M131.27,391.819c0.144,0.005,0.238,0.675,0.21,1.497c-0.028,0.822-0.167,1.484-0.311,1.48
									c-0.144-0.005-0.238-0.675-0.21-1.497C130.987,392.477,131.126,391.814,131.27,391.819z"/>
							</g>
							<g>
								<path style="fill:#455A64;" d="M131.452,385.861c0.144,0.004,0.241,0.674,0.216,1.496c-0.024,0.822-0.16,1.485-0.304,1.481
									c-0.144-0.004-0.241-0.674-0.216-1.496C131.173,386.52,131.309,385.857,131.452,385.861z"/>
							</g>
							<g>
								<path style="fill:#455A64;" d="M131.608,379.906c0.144,0.004,0.244,0.673,0.223,1.495c-0.021,0.822-0.154,1.486-0.298,1.482
									c-0.144-0.004-0.244-0.673-0.223-1.495C131.331,380.566,131.464,379.902,131.608,379.906z"/>
							</g>
							<g>
								<path style="fill:#455A64;" d="M131.736,373.951c0.144,0.003,0.247,0.672,0.23,1.494c-0.017,0.822-0.147,1.487-0.291,1.484
									c-0.144-0.003-0.247-0.672-0.23-1.494C131.463,374.612,131.593,373.948,131.736,373.951z"/>
							</g>
							<g>
								<path style="fill:#455A64;" d="M131.837,367.995c0.144,0.002,0.25,0.671,0.237,1.493c-0.013,0.823-0.14,1.487-0.284,1.485
									c-0.144-0.002-0.25-0.671-0.237-1.493C131.566,368.657,131.693,367.992,131.837,367.995z"/>
							</g>
							<g>
								<path style="fill:#455A64;" d="M131.908,362.039c0.144,0.001,0.253,0.669,0.244,1.492c-0.009,0.823-0.133,1.488-0.277,1.486
									c-0.144-0.002-0.253-0.669-0.244-1.492C131.641,362.703,131.765,362.037,131.908,362.039z"/>
							</g>
							<g>
								<path style="fill:#455A64;" d="M131.951,356.082c0.144,0.001,0.256,0.668,0.252,1.491c-0.005,0.822-0.125,1.488-0.269,1.488
									c-0.144-0.001-0.256-0.668-0.251-1.491C131.687,356.747,131.807,356.081,131.951,356.082z"/>
							</g>
							<g>
								<path style="fill:#455A64;" d="M131.964,350.126c0.144,0,0.26,0.667,0.259,1.489c-0.001,0.823-0.118,1.489-0.262,1.489
									c-0.144,0-0.26-0.667-0.259-1.49C131.703,350.792,131.82,350.126,131.964,350.126z"/>
							</g>
							<g>
								<path style="fill:#455A64;" d="M131.947,344.169c0.144-0.001,0.263,0.666,0.266,1.488c0.003,0.823-0.11,1.49-0.254,1.49
									c-0.144,0.001-0.263-0.665-0.266-1.488C131.689,344.837,131.803,344.17,131.947,344.169z"/>
							</g>
							<g>
								<path style="fill:#455A64;" d="M131.9,338.212c0.144-0.001,0.266,0.664,0.274,1.487c0.007,0.823-0.103,1.49-0.247,1.492
									c-0.144,0.001-0.267-0.664-0.274-1.487C131.646,338.882,131.756,338.214,131.9,338.212z"/>
							</g>
							<g>
								<path style="fill:#455A64;" d="M131.823,332.256c0.144-0.002,0.27,0.663,0.282,1.485c0.012,0.823-0.095,1.491-0.239,1.493
									c-0.144,0.002-0.27-0.663-0.281-1.486C131.572,332.927,131.679,332.258,131.823,332.256z"/>
							</g>
							<g>
								<path style="fill:#455A64;" d="M131.717,326.303c0.144-0.003,0.273,0.662,0.289,1.484c0.015,0.823-0.089,1.492-0.232,1.494
									c-0.144,0.003-0.273-0.662-0.288-1.484C131.469,326.975,131.573,326.306,131.717,326.303z"/>
							</g>
							<g>
								<path style="fill:#455A64;" d="M131.582,320.343c0.144-0.004,0.277,0.66,0.297,1.483c0.02,0.824-0.08,1.493-0.224,1.496
									c-0.144,0.003-0.277-0.661-0.297-1.484C131.339,321.017,131.439,320.347,131.582,320.343z"/>
							</g>
							<g>
								<path style="fill:#455A64;" d="M131.373,314.385c0.144-0.007,0.287,0.656,0.319,1.479c0.033,0.824-0.057,1.495-0.201,1.5
									c-0.144,0.005-0.287-0.657-0.319-1.479C131.139,315.063,131.229,314.391,131.373,314.385z"/>
							</g>
							<g>
								<path style="fill:#455A64;" d="M131.026,308.435c0.143-0.011,0.303,0.647,0.357,1.469c0.054,0.823-0.019,1.496-0.163,1.504
									c-0.144,0.008-0.303-0.65-0.357-1.47C130.81,309.119,130.883,308.445,131.026,308.435z"/>
							</g>
							<g>
								<path style="fill:#455A64;" d="M130.481,302.503c0.143-0.016,0.326,0.635,0.41,1.455c0.084,0.82,0.035,1.495-0.108,1.508
									c-0.143,0.013-0.327-0.639-0.41-1.455C130.289,303.194,130.338,302.519,130.481,302.503z"/>
							</g>
							<g>
								<path style="fill:#455A64;" d="M129.905,298.075c0.142-0.021,0.305,0.295,0.363,0.706c0.059,0.411-0.01,0.76-0.152,0.779
									c-0.143,0.019-0.305-0.297-0.363-0.706C129.694,298.445,129.763,298.096,129.905,298.075z"/>
							</g>
						</g>
						<g>
							<path style="fill:#455A64;" d="M133.803,269.921c0.036,0.002,0.046,0.396,0.033,1.105c-0.013,0.709-0.048,1.734-0.103,3
								c-0.109,2.532-0.297,6.027-0.535,9.886c-0.126,1.922-0.247,3.753-0.357,5.439c-0.127,1.656-0.155,3.212-0.652,4.445
								c-0.474,1.246-1.396,1.959-2.075,2.209c-0.346,0.127-0.633,0.161-0.824,0.155c-0.191-0.005-0.289-0.03-0.288-0.045
								c-0.003-0.052,0.408-0.005,1.032-0.296c0.608-0.289,1.415-0.985,1.81-2.151c0.422-1.158,0.418-2.672,0.518-4.346
								c0.098-1.687,0.204-3.519,0.316-5.442c0.239-3.859,0.484-7.35,0.688-9.876c0.102-1.263,0.193-2.285,0.268-2.99
								C133.709,270.308,133.767,269.919,133.803,269.921z"/>
						</g>
						<g>
							<path style="fill:#455A64;" d="M131.049,272.294c0-0.068,0.448,0.015,0.612,0.603c0.068,0.273,0.062,0.664-0.216,0.998
								c-0.279,0.346-0.828,0.434-1.249,0.253c-0.429-0.164-0.761-0.61-0.719-1.052c0.033-0.434,0.302-0.719,0.541-0.867
								c0.528-0.307,0.907-0.054,0.859-0.005c-0.018,0.076-0.332,0.018-0.643,0.304c-0.148,0.136-0.285,0.356-0.278,0.582
								c-0.002,0.221,0.169,0.445,0.436,0.556c0.269,0.106,0.547,0.065,0.7-0.095c0.163-0.157,0.219-0.41,0.207-0.611
								C131.275,272.538,131.009,272.36,131.049,272.294z"/>
						</g>
						<g>
							<path style="fill:#455A64;" d="M105.811,276.53c0.034-0.085,0.866,0.29,2.289,0.486c1.406,0.203,3.451,0.139,5.44-0.747
								c1.988-0.89,3.399-2.372,4.186-3.555c0.803-1.19,1.079-2.061,1.164-2.029c0.051,0.01-0.101,0.936-0.853,2.226
								c-0.734,1.279-2.178,2.89-4.284,3.833c-2.107,0.94-4.271,0.941-5.713,0.635C106.576,277.079,105.785,276.574,105.811,276.53z
								"/>
						</g>
						<g>
							<path style="fill:#455A64;" d="M150.415,269.922c0.087-0.004,0.106,0.734,0.451,1.839c0.334,1.096,1.073,2.566,2.388,3.721
								c1.318,1.153,2.873,1.693,4.003,1.879c1.14,0.196,1.874,0.118,1.882,0.205c0.012,0.054-0.72,0.269-1.931,0.16
								c-1.195-0.099-2.882-0.614-4.297-1.853c-1.413-1.24-2.145-2.844-2.401-4.016C150.243,270.672,150.36,269.918,150.415,269.922
								z"/>
						</g>
					</g>
					<g>
						<path style="fill:#E8505B;" d="M165.468,274.01l-59.113-4.089l2.046-28.239l0.029-15.786l-5.743,8.877l-17.841-15.51
							l19.177-25.032l0.002,0.004c3.266-3.39,7.089-5.896,11.664-7.551c2.222-0.804,4.581-1.285,7.31-1.4v0
							c5.885,1.819,11.771,1.823,17.656,0.011c2.424,0.304,8.028,0.658,16.05,2.977l22.385,6.053l-7.37,27.486l-13.523-4.551
							C158.197,217.257,165.605,268.302,165.468,274.01z"/>
						<g>
							<path style="fill:#263238;" d="M107.862,226.809c-0.121-0.079,0.709-1.596,1.854-3.388c1.145-1.793,2.172-3.186,2.295-3.111
								c0.123,0.075-0.707,1.591-1.854,3.388C109.01,225.494,107.983,226.887,107.862,226.809z"/>
						</g>
					</g>
				</g>
			</g>
		</g>
		<g style="opacity:0.6;">
			<path style="fill:#FFFFFF;" d="M178.267,194.61c0,0.144-16.572,0.26-37.01,0.26c-20.445,0-37.013-0.117-37.013-0.26
				c0-0.144,16.568-0.26,37.013-0.26C161.695,194.349,178.267,194.466,178.267,194.61z"/>
		</g>
		<g style="opacity:0.6;">
			<path style="fill:#FFFFFF;" d="M174.693,207.372c0,0.144-17.886,0.261-39.945,0.261c-22.066,0-39.949-0.117-39.949-0.261
				c0-0.144,17.882-0.26,39.949-0.26C156.807,207.112,174.693,207.229,174.693,207.372z"/>
		</g>
		<g style="opacity:0.6;">
			<path style="fill:#FFFFFF;" d="M159.139,221.411c0,0.144-16.004,0.26-35.742,0.26c-19.744,0-35.745-0.117-35.745-0.26
				s16.001-0.26,35.745-0.26C143.135,221.151,159.139,221.267,159.139,221.411z"/>
		</g>
		<g style="opacity:0.6;">
			<path style="fill:#FFFFFF;" d="M161.037,236.688c0,0.144-11.772,0.26-26.29,0.26c-14.523,0-26.292-0.117-26.292-0.26
				c0-0.144,11.769-0.26,26.292-0.26C149.265,236.428,161.037,236.545,161.037,236.688z"/>
		</g>
		<g style="opacity:0.6;">
			<path style="fill:#FFFFFF;" d="M162.553,252.54c0,0.144-12.083,0.26-26.984,0.26c-14.906,0-26.987-0.117-26.987-0.26
				c0-0.144,12.08-0.26,26.987-0.26C150.471,252.279,162.553,252.396,162.553,252.54z"/>
		</g>
		<g style="opacity:0.6;">
			<path style="fill:#FFFFFF;" d="M164.987,267.077c0,0.144-13.08,0.26-29.212,0.26c-16.137,0-29.215-0.117-29.215-0.26
				s13.077-0.26,29.215-0.26C151.907,266.816,164.987,266.933,164.987,267.077z"/>
		</g>
	</g>
</g>
</svg>
